Results
version=1
nRows=19
nColumns=24
inDegrees=yes
endheader
time	pelvis_tilt	pelvis_list	pelvis_rotation	pelvis_tx	pelvis_ty	pelvis_tz	hip_flexion_r	hip_adduction_r	hip_rotation_r	knee_angle_r	ankle_angle_r	subtalar_angle_r	mtp_angle_r	hip_flexion_l	hip_adduction_l	hip_rotation_l	knee_angle_l	ankle_angle_l	subtalar_angle_l	mtp_angle_l	lumbar_extension	lumbar_bending	lumbar_rotation
      0.52100000	     -2.82015408	      6.58748731	     -3.38387478	     -0.72863647	      0.97853922	      0.30459434	     28.48988321	     -4.72231440	     -1.28433174	     -1.48445391	      0.41589723	     -1.87110881	      0.76517791	    -16.99641017	     11.78806075	      4.22183141	      1.74690039	     10.75411251	     -8.58526310	     -0.03706658	    -10.19315953	     -0.37464700	     -7.42911521
      0.52516667	     -2.94587966	      6.50757138	     -3.42174104	     -0.72291941	      0.97760806	      0.30485306	     28.63209055	     -4.55978558	     -1.07211285	     -1.69032725	      0.07786098	     -1.99853876	      6.10614309	    -17.01478924	     11.70364138	      4.12220783	      1.32247372	     11.07668336	     -8.28433393	     -1.78370742	    -10.04549994	     -0.25389902	     -7.34207639
      0.52933333	     -2.99849146	      6.36981268	     -3.48617831	     -0.71714942	      0.97682752	      0.30516512	     28.66138083	     -4.33374109	     -0.77704957	     -1.91122503	     -0.29319398	     -2.20700885	      6.12921038	    -17.15033312	     11.56655336	      4.15114329	      0.98086959	     11.14977689	     -8.33146601	     -1.75620921	     -9.98715994	     -0.04712653	     -7.33418728
      0.53350000	     -3.08558457	      6.23043600	     -3.54572103	     -0.71135420	      0.97604624	      0.30549047	     28.74970384	     -4.10541039	     -0.48191387	     -2.24704315	     -0.65401844	     -2.38752519	      6.15859397	    -17.21420596	     11.42664083	      4.10975755	      0.56454129	     11.28438278	     -8.25886602	     -1.71114663	     -9.89371065	      0.15607740	     -7.32921990
      0.53766667	     -3.15806078	      6.07757853	     -3.61629070	     -0.70551535	      0.97532700	      0.30584364	     28.81995941	     -3.85899112	     -0.16158122	     -2.63586744	     -1.08572488	     -2.66085234	      6.20067318	    -17.27616991	     11.27820790	      4.01512148	      0.11393697	     11.42446238	     -8.12609954	     -1.63617737	     -9.80629431	      0.37982361	     -7.31946741
      0.54183333	     -3.23083742	      5.91684254	     -3.68558379	     -0.69964835	      0.97465167	      0.30621729	     28.90079325	     -3.60475325	      0.15844833	     -3.09858855	     -1.55330494	     -2.95272258	      6.24945590	    -17.31944290	     11.12126950	      3.93446373	     -0.37681988	     11.54729263	     -8.01756905	     -1.54064964	     -9.71351264	      0.61622963	     -7.30229006
      0.54600000	     -3.30774900	      5.74524801	     -3.75867518	     -0.69375191	      0.97401628	      0.30661149	     28.99110868	     -3.33623839	      0.48771562	     -3.61792522	     -2.06499562	     -3.29522444	      6.30643277	    -17.34147603	     10.95602306	      3.83556045	     -0.90588403	     11.64854859	     -7.92268813	     -1.41942845	     -9.62180120	      0.86256140	     -7.28302753
      0.55016667	     -3.38025923	      5.56080903	     -3.83489109	     -0.68781606	      0.97342899	      0.30703018	     29.07878631	     -3.05216910	      0.81811615	     -4.18277304	     -2.61639288	     -3.68585357	      6.37265851	    -17.35510992	     10.77889910	      3.72603582	     -1.46300636	     11.72451885	     -7.83001143	     -1.26740929	     -9.53675543	      1.12109661	     -7.25948332
      0.55433333	     -3.42003062	      5.36164016	     -3.92365983	     -0.68186047	      0.97292552	      0.30749088	     29.13195333	     -2.74918477	      1.16621439	     -4.78128140	     -3.17695644	     -4.11998767	      6.51880559	    -17.37703966	     10.59156616	      3.57441051	     -2.07480036	     11.81819318	     -7.70128914	     -0.93232467	     -9.50757135	      1.38681308	     -7.23103111
      0.55850000	     -3.52922169	      5.17381977	     -3.99632722	     -0.67585170	      0.97237425	      0.30793065	     29.28294268	     -2.45785644	      1.46405838	     -5.45989945	     -3.76527785	     -4.54263352	      6.58664936	    -17.33299516	     10.41113979	      3.51583041	     -2.66722984	     11.79010807	     -7.69166536	     -0.74568464	     -9.36420017	      1.65100673	     -7.19707704
      0.56266667	     -3.61501430	      4.96024549	     -4.08651177	     -0.66980235	      0.97189069	      0.30839577	     29.40551810	     -2.13670012	      1.76165238	     -6.16031963	     -4.30229547	     -4.92085792	      6.63015030	    -17.28732234	     10.21393991	      3.40070554	     -3.32429429	     11.75694661	     -7.73467607	     -0.60586416	     -9.25058434	      1.97227905	     -7.16127128
      0.56683333	     -3.69527584	      4.76429266	     -4.17051112	     -0.66376710	      0.97146333	      0.30889734	     29.53165309	     -1.82905882	      2.07986446	     -6.89227976	     -4.88611648	     -5.47198155	      6.68225972	    -17.22039559	     10.03131858	      3.29198305	     -4.02385417	     11.70315493	     -7.70536353	     -0.41470429	     -9.15432160	      2.23335929	     -7.12789313
      0.57100000	     -3.74895243	      4.56784036	     -4.24396959	     -0.65771294	      0.97111240	      0.30939831	     29.63556594	     -1.52812178	      2.36500120	     -7.65316799	     -5.49014148	     -6.07124227	      6.77437792	    -17.16799124	      9.84564546	      3.16873363	     -4.75487411	     11.64380696	     -7.60600943	     -0.06649722	     -9.09682225	      2.48627189	     -7.08651554
      0.57516667	     -3.80773786	      4.35221091	     -4.35620730	     -0.65161235	      0.97076490	      0.30995580	     29.76250461	     -1.19266743	      2.63586867	     -8.46930006	     -5.95821626	     -6.47736365	      7.85601627	    -17.06499329	      9.64797948	      2.87845355	     -5.56987401	     11.53364077	     -7.45489107	      3.88684795	     -9.03051022	      2.77547424	     -7.01145673
      0.57933333	     -3.87443016	      4.14617724	     -4.42474216	     -0.64548454	      0.97048987	      0.31044887	     29.88992540	     -0.88430317	      2.87939686	     -9.29399957	     -6.40190370	     -7.04194952	      7.85939224	    -16.98218000	      9.45959878	      2.87654662	     -6.32793125	     11.26812881	     -7.65468389	      3.95155260	     -8.94258735	      3.06781406	     -6.99360895
      0.58350000	     -3.93311657	      3.93410208	     -4.52448271	     -0.63933229	      0.97024615	      0.31098969	     30.02194605	     -0.55589217	      3.13356344	    -10.16096792	     -6.70632079	     -7.50866664	      7.86141080	    -16.87545383	      9.27286176	      2.76572854	     -7.14853253	     11.01296579	     -7.75922644	      4.02971351	     -8.86963798	      3.37040051	     -6.95337887
      0.58766667	     -3.99520800	      3.73545043	     -4.59709813	     -0.63320112	      0.97005454	      0.31153132	     30.15465420	     -0.24848531	      3.37593701	    -11.02616943	     -7.05263457	     -8.06220289	      7.86171604	    -16.72510491	      9.08902277	      2.65942284	     -8.04482097	     10.75622950	     -7.80792190	      4.18069723	     -8.80276545	      3.62280669	     -6.90610759
      0.59183333	     -4.02033494	      3.49991751	     -4.65901348	     -0.62701004	      0.96998196	      0.31206791	     30.22270721	      0.08570748	      3.58219537	    -11.86937310	     -7.33118722	     -8.67576902	      7.86994736	    -16.58744652	      8.86227492	      2.49687935	     -8.99804554	     10.50613194	     -7.75881878	      4.76074845	     -8.75922644	      3.95508014	     -6.83394098
      0.59600000	     -4.05693578	      3.32310726	     -4.77155546	     -0.62085886	      0.96987948	      0.31266120	     30.35684970	      0.38814803	      3.83231068	    -12.81669319	     -7.38864935	     -9.04341036	      7.86711614	    -16.42253411	      8.71488548	      2.35316347	     -9.95136876	     10.06841154	     -7.89083769	      4.93548059	     -8.73117636	      4.18001432	     -6.80573899
